<svg width="58" height="58" viewBox="0 0 58 58" fill="none" xmlns="http://www.w3.org/2000/svg">
<path d="M22.9583 38.6667C18.5681 38.6667 14.8528 37.1458 11.8127 34.104C8.7725 31.0622 7.25161 27.347 7.25 22.9583C7.24839 18.5697 8.76928 14.8544 11.8127 11.8127C14.8561 8.77089 18.5713 7.25 22.9583 7.25C27.3454 7.25 31.0614 8.77089 34.1064 11.8127C37.1514 14.8544 38.6715 18.5697 38.6667 22.9583C38.6667 24.7306 38.3847 26.4021 37.8208 27.9729C37.2569 29.5438 36.4917 30.9333 35.525 32.1417L49.0583 45.675C49.5014 46.1181 49.7229 46.6819 49.7229 47.3667C49.7229 48.0514 49.5014 48.6153 49.0583 49.0583C48.6153 49.5014 48.0514 49.7229 47.3667 49.7229C46.6819 49.7229 46.1181 49.5014 45.675 49.0583L32.1417 35.525C30.9333 36.4917 29.5438 37.2569 27.9729 37.8208C26.4021 38.3847 24.7306 38.6667 22.9583 38.6667ZM22.9583 33.8333C25.9792 33.8333 28.5473 32.7764 30.6627 30.6627C32.7781 28.5489 33.8349 25.9808 33.8333 22.9583C33.8317 19.9359 32.7748 17.3686 30.6627 15.2564C28.5505 13.1443 25.9824 12.0866 22.9583 12.0833C19.9343 12.0801 17.367 13.1378 15.2564 15.2564C13.1459 17.375 12.0882 19.9423 12.0833 22.9583C12.0785 25.9743 13.1362 28.5424 15.2564 30.6627C17.3766 32.7829 19.9439 33.8398 22.9583 33.8333Z" fill="#F19124"/>
</svg>
